<?xml version="1.0" encoding="UTF-8" standalone="no"?><!-- Generator: Gravit.io --><svg xmlns="http://www.w3.org/2000/svg" xmlns:xlink="http://www.w3.org/1999/xlink" style="isolation:isolate" viewBox="0 0 341.333 341.333" width="341.333pt" height="341.333pt"><defs><clipPath id="_clipPath_jxA8dR9pq0IWOyjHh4AaSOYsqYvI8kFm"><rect width="341.333" height="341.333"/></clipPath></defs><g clip-path="url(#_clipPath_jxA8dR9pq0IWOyjHh4AaSOYsqYvI8kFm)"><clipPath id="_clipPath_aRKpbOBoBZylBR0Uc5QQsvMjSkoLb6o6"><rect x="0" y="0" width="341.333" height="341.333" transform="matrix(1,0,0,1,0,0)" fill="rgb(255,255,255)"/></clipPath><g clip-path="url(#_clipPath_aRKpbOBoBZylBR0Uc5QQsvMjSkoLb6o6)"><g><g><g><path d=" M 170.667 0 C 76.41 0 0 76.41 0 170.667 C 0 264.924 76.41 341.334 170.667 341.334 C 264.924 341.334 341.334 264.924 341.334 170.667 C 341.334 76.41 264.923 0 170.667 0 Z  M 170.667 298.667 C 99.975 298.667 42.667 241.359 42.667 170.667 C 42.667 99.975 99.975 42.667 170.667 42.667 C 241.359 42.667 298.667 99.975 298.667 170.667 C 298.667 241.359 241.359 298.667 170.667 298.667 Z " fill="rgb(255,255,255)" fill-opacity="0.9"/></g></g></g></g></g></svg>