<?xml version="1.0" encoding="UTF-8" standalone="no"?><!-- Generator: Gravit.io --><svg xmlns="http://www.w3.org/2000/svg" xmlns:xlink="http://www.w3.org/1999/xlink" style="isolation:isolate" viewBox="0 0 329 329" width="329pt" height="329pt"><defs><clipPath id="_clipPath_LlGBbAVLRSXVrEhQUfFIvv1cBRpUlgrB"><rect width="329" height="329"/></clipPath></defs><g clip-path="url(#_clipPath_LlGBbAVLRSXVrEhQUfFIvv1cBRpUlgrB)"><clipPath id="_clipPath_Oyj9oTMf0u7xvZpF6LeqEnFtfBE5p2e3"><rect x="0" y="0" width="329" height="329" transform="matrix(1,0,0,1,0,0)" fill="rgb(255,255,255)"/></clipPath><g clip-path="url(#_clipPath_Oyj9oTMf0u7xvZpF6LeqEnFtfBE5p2e3)"><g><path d=" M 194.641 164.769 L 322.748 36.659 C 331.084 28.326 331.084 14.853 322.748 6.52 C 314.414 -1.813 300.941 -1.813 292.608 6.52 L 164.498 134.63 L 36.392 6.52 C 28.055 -1.813 14.586 -1.813 6.253 6.52 C -2.084 14.853 -2.084 28.326 6.253 36.659 L 134.359 164.769 L 6.253 292.879 C -2.084 301.212 -2.084 314.686 6.253 323.019 C 10.406 327.175 15.866 329.263 21.322 329.263 C 26.779 329.263 32.235 327.175 36.392 323.019 L 164.498 194.909 L 292.608 323.019 C 296.765 327.175 302.221 329.263 307.678 329.263 C 313.134 329.263 318.591 327.175 322.748 323.019 C 331.084 314.686 331.084 301.212 322.748 292.879 L 194.641 164.769 L 194.641 164.769 Z " fill="rgb(255,255,255)" fill-opacity="0.95"/></g></g></g></svg>