<?xml version="1.0" encoding="UTF-8" standalone="no"?><!-- Generator: Gravit.io --><svg xmlns="http://www.w3.org/2000/svg" xmlns:xlink="http://www.w3.org/1999/xlink" style="isolation:isolate" viewBox="0 0 512 512" width="512pt" height="512pt"><defs><clipPath id="_clipPath_eztH7wtP844LEdT9Efm7JBsYPRsnvv9r"><rect width="512" height="512"/></clipPath></defs><g clip-path="url(#_clipPath_eztH7wtP844LEdT9Efm7JBsYPRsnvv9r)"><g><g><g><path d=" M 501.333 341.333 L 362.667 341.333 L 362.667 170.667 L 501.334 170.667 C 507.23 170.667 512.001 165.896 512.001 160 C 512.001 154.104 507.23 149.333 501.334 149.333 L 362.667 149.333 L 362.667 10.667 C 362.667 4.771 357.896 0 352 0 C 346.104 0 341.333 4.771 341.333 10.667 L 341.333 149.334 L 170.667 149.334 L 170.667 10.667 C 170.667 4.771 165.896 0 160 0 C 154.104 0 149.333 4.771 149.333 10.667 L 149.333 149.334 L 10.667 149.334 C 4.771 149.333 0 154.104 0 160 C 0 165.896 4.771 170.667 10.667 170.667 L 149.334 170.667 L 149.334 341.334 L 10.667 341.334 C 4.771 341.333 0 346.104 0 352 C 0 357.896 4.771 362.667 10.667 362.667 L 149.334 362.667 L 149.334 501.334 C 149.334 507.23 154.105 512.001 160.001 512.001 C 165.897 512.001 170.668 507.23 170.668 501.334 L 170.668 362.667 L 341.335 362.667 L 341.335 501.334 C 341.335 507.23 346.106 512.001 352.002 512.001 C 357.898 512.001 362.669 507.23 362.669 501.334 L 362.669 362.667 L 501.336 362.667 C 507.232 362.667 512.003 357.896 512.003 352 C 512 346.104 507.229 341.333 501.333 341.333 Z  M 341.333 341.333 L 170.667 341.333 L 170.667 170.667 L 341.334 170.667 L 341.334 341.333 L 341.333 341.333 Z " fill="rgb(255,255,255)" fill-opacity="0.5"/><path d=" M 256 320 C 291.292 320 320 291.292 320 256 C 320 220.708 291.292 192 256 192 C 220.708 192 192 220.708 192 256 C 192 291.292 220.708 320 256 320 Z  M 256 213.333 C 279.521 213.333 298.667 232.479 298.667 256 C 298.667 279.521 279.521 298.667 256 298.667 C 232.479 298.667 213.333 279.521 213.333 256 C 213.333 232.479 232.479 213.333 256 213.333 Z " fill="rgb(255,255,255)" fill-opacity="0.95"/><path d=" M 24.458 124.875 C 26.542 126.958 29.271 128 32 128 C 34.729 128 37.458 126.958 39.542 124.875 L 74.667 89.75 L 109.792 124.875 C 111.875 126.958 114.605 128 117.334 128 C 120.063 128 122.792 126.958 124.876 124.875 C 129.043 120.708 129.043 113.958 124.876 109.792 L 89.75 74.667 L 124.875 39.542 C 129.042 35.375 129.042 28.625 124.875 24.459 C 120.708 20.292 113.958 20.292 109.792 24.459 L 74.667 59.583 L 39.542 24.458 C 35.375 20.291 28.625 20.291 24.459 24.458 C 20.292 28.625 20.292 35.375 24.459 39.541 L 59.584 74.666 L 24.459 109.791 C 20.292 113.958 20.292 120.708 24.458 124.875 Z " fill="rgb(255,255,255)" fill-opacity="0.95"/><path d=" M 487.542 387.125 C 483.375 382.958 476.625 382.958 472.459 387.125 L 437.334 422.25 L 402.209 387.125 C 398.042 382.958 391.292 382.958 387.126 387.125 C 382.959 391.292 382.959 398.042 387.126 402.208 L 422.251 437.333 L 387.126 472.458 C 382.959 476.625 382.959 483.375 387.126 487.541 C 389.209 489.624 391.939 490.666 394.668 490.666 C 397.397 490.666 400.126 489.624 402.21 487.541 L 437.335 452.416 L 472.46 487.541 C 474.543 489.624 477.273 490.666 480.002 490.666 C 482.731 490.666 485.46 489.624 487.544 487.541 C 491.711 483.374 491.711 476.624 487.544 472.458 L 452.419 437.333 L 487.544 402.208 C 491.708 398.042 491.708 391.292 487.542 387.125 Z " fill="rgb(255,255,255)" fill-opacity="0.95"/></g></g></g></g></svg>