<?xml version="1.0" encoding="utf-8"?>
<!-- Generator: Adobe Illustrator 23.0.5, SVG Export Plug-In . SVG Version: 6.00 Build 0)  -->
<svg version="1.1" id="Layer_1" xmlns="http://www.w3.org/2000/svg" xmlns:xlink="http://www.w3.org/1999/xlink" x="0px" y="0px"
	 viewBox="0 0 32 32" style="enable-background:new 0 0 32 32;" xml:space="preserve">
<style type="text/css">
	.st0{fill:#FFFFFF;}
</style>
<path class="st0" d="M28,14H8.8l4.6-4.6C13.8,9,14,8.5,14,8c0-1-0.8-2-2-2c-0.5,0-1,0.2-1.4,0.6l-8,8C2.3,14.9,2,15.3,2,16
	s0.3,1.1,0.6,1.4l8,8C11,25.8,11.5,26,12,26c1.2,0,2-1,2-2c0-0.5-0.2-1-0.6-1.4L8.8,18H28c1.1,0,2-0.9,2-2S29.1,14,28,14z"/>
</svg>
